<svg width="37" height="42" viewBox="0 0 37 42" fill="none" xmlns="http://www.w3.org/2000/svg">
<path d="M10.9182 17.4713V8.33672C10.9239 6.39393 11.6977 4.53212 13.0708 3.15768C14.4439 1.78324 16.3049 1.00762 18.2477 1C20.1917 1.00571 22.0544 1.78057 23.429 3.15521C24.8037 4.52986 25.5785 6.39268 25.5842 8.33672V17.4713M35.4625 33.6609L33.253 17.298C33.0437 15.9489 32.3526 14.7212 31.3078 13.8423C30.263 12.9634 28.9351 12.4928 27.57 12.5176H8.93236C7.56725 12.4928 6.23938 12.9634 5.19454 13.8423C4.1497 14.7212 3.45876 15.9489 3.24947 17.298L1.03978 33.6609C0.936316 34.5999 1.03525 35.5502 1.32979 36.4478C1.62433 37.3454 2.10768 38.1695 2.74738 38.8646C3.38708 39.5598 4.16827 40.1096 5.03834 40.4776C5.90842 40.8455 6.84722 41.0229 7.79155 40.9976H28.7326C29.6752 41.0198 30.6115 40.8402 31.479 40.4709C32.3464 40.1015 33.1249 39.5509 33.7622 38.8562C34.3995 38.1614 34.8809 37.3385 35.1741 36.4425C35.4674 35.5465 35.5657 34.598 35.4625 33.6609Z" stroke="currentColor" stroke-width="2" stroke-linecap="round" stroke-linejoin="round"/>
</svg>
